Oxygen-Heavy.ufo
<glyph name="period" format="1">
  <advance width="459"/>
  <unicode hex="002E"/>
  <outline>
    <contour>
      <point x="234" y="-22" type="curve" smooth="yes"/>
      <point x="319" y="-22"/>
      <point x="399" y="50"/>
      <point x="399" y="144" type="curve" smooth="yes"/>
      <point x="399" y="237"/>
      <point x="319" y="313"/>
      <point x="234" y="313" type="curve" smooth="yes"/>
      <point x="146" y="313"/>
      <point x="64" y="237"/>
      <point x="64" y="144" type="curve" smooth="yes"/>
      <point x="64" y="50"/>
      <point x="146" y="-22"/>
    </contour>
  </outline>
</glyph>
<glyph name="zero" format="1">
  <advance width="1332"/>
  <unicode hex="0030"/>
  <outline>
    <contour>
      <point x="667" y="225" type="curve" smooth="yes"/>
      <point x="434" y="225"/>
      <point x="415" y="509"/>
      <point x="415" y="735" type="curve" smooth="yes"/>
      <point x="417" y="953"/>
      <point x="437" y="1222"/>
      <point x="667" y="1222" type="curve" smooth="yes"/>
      <point x="899" y="1222"/>
      <point x="917" y="952"/>
      <point x="917" y="728" type="curve" smooth="yes"/>
      <point x="917" y="505"/>
      <point x="899" y="225"/>
    </contour>
    <contour>
      <point x="667" y="-19" type="curve" smooth="yes"/>
      <point x="1106" y="-19"/>
      <point x="1242" y="351"/>
      <point x="1242" y="720" type="curve" smooth="yes"/>
      <point x="1242" y="1084"/>
      <point x="1107" y="1466"/>
      <point x="667" y="1466" type="curve" smooth="yes"/>
      <point x="227" y="1466"/>
      <point x="90" y="1088"/>
      <point x="90" y="720" type="curve" smooth="yes"/>
      <point x="90" y="351"/>
      <point x="228" y="-19"/>
    </contour>
  </outline>
</glyph>
<glyph name="three" format="1">
  <advance width="1061"/>
  <unicode hex="0033"/>
  <outline>
    <contour>
      <point x="477" y="-19" type="curve" smooth="yes"/>
      <point x="769" y="-19"/>
      <point x="1015" y="111"/>
      <point x="1015" y="390" type="curve" smooth="yes"/>
      <point x="1015" y="550"/>
      <point x="931" y="718"/>
      <point x="746" y="752" type="curve"/>
      <point x="900" y="805"/>
      <point x="971" y="922"/>
      <point x="971" y="1059" type="curve" smooth="yes"/>
      <point x="971" y="1283"/>
      <point x="783" y="1466"/>
      <point x="467" y="1466" type="curve" smooth="yes"/>
      <point x="292" y="1466"/>
      <point x="160" y="1425"/>
      <point x="34" y="1356" type="curve"/>
      <point x="116" y="1136" type="line"/>
      <point x="206" y="1185"/>
      <point x="322" y="1222"/>
      <point x="451" y="1222" type="curve" smooth="yes"/>
      <point x="604" y="1222"/>
      <point x="675" y="1106"/>
      <point x="675" y="1039" type="curve" smooth="yes"/>
      <point x="675" y="895"/>
      <point x="530" y="861"/>
      <point x="316" y="862" type="curve"/>
      <point x="256" y="862" type="line"/>
      <point x="256" y="625" type="line"/>
      <point x="251" y="625"/>
      <point x="318" y="625"/>
      <point x="313" y="625" type="curve" smooth="yes"/>
      <point x="548" y="621"/>
      <point x="688" y="597"/>
      <point x="688" y="411" type="curve" smooth="yes"/>
      <point x="688" y="310"/>
      <point x="604" y="225"/>
      <point x="478" y="225" type="curve" smooth="yes"/>
      <point x="351" y="225"/>
      <point x="190" y="265"/>
      <point x="117" y="326" type="curve"/>
      <point x="35" y="109" type="line"/>
      <point x="145" y="18"/>
      <point x="320" y="-19"/>
    </contour>
  </outline>
</glyph>
<glyph name="five" format="1">
  <advance width="1112"/>
  <unicode hex="0035"/>
  <outline>
    <contour>
      <point x="554" y="-19" type="curve" smooth="yes"/>
      <point x="883" y="-19"/>
      <point x="1052" y="178"/>
      <point x="1052" y="462" type="curve" smooth="yes"/>
      <point x="1052" y="755"/>
      <point x="855" y="939"/>
      <point x="607" y="939" type="curve" smooth="yes"/>
      <point x="563" y="939"/>
      <point x="513" y="930"/>
      <point x="463" y="910" type="curve"/>
      <point x="462" y="874"/>
      <point x="477" y="1235"/>
      <point x="475" y="1198" type="curve"/>
      <point x="984" y="1198" type="line"/>
      <point x="999" y="1432" type="line"/>
      <point x="183" y="1432" type="line"/>
      <point x="147" y="636" type="line"/>
      <point x="345" y="592" type="line"/>
      <point x="415" y="670"/>
      <point x="493" y="706"/>
      <point x="556" y="706" type="curve" smooth="yes"/>
      <point x="651" y="706"/>
      <point x="743" y="619"/>
      <point x="743" y="468" type="curve" smooth="yes"/>
      <point x="743" y="332"/>
      <point x="681" y="223"/>
      <point x="505" y="223" type="curve" smooth="yes"/>
      <point x="336" y="223"/>
      <point x="168" y="354"/>
      <point x="184" y="341" type="curve"/>
      <point x="94" y="123" type="line"/>
      <point x="71" y="143"/>
      <point x="307" y="-19"/>
    </contour>
  </outline>
</glyph>
<glyph name="colon" format="1">
  <advance width="437"/>
  <unicode hex="003A"/>
  <outline>
    <contour>
      <point x="70" y="6" type="line"/>
      <point x="373" y="6" type="line"/>
      <point x="373" y="293" type="line"/>
      <point x="70" y="293" type="line"/>
    </contour>
    <contour>
      <point x="70" y="807" type="line"/>
      <point x="373" y="807" type="line"/>
      <point x="373" y="1094" type="line"/>
      <point x="70" y="1094" type="line"/>
    </contour>
  </outline>
</glyph>
<glyph name="at" format="1">
  <advance width="1623"/>
  <unicode hex="0040"/>
  <outline>
    <contour>
      <point x="895" y="-255" type="curve" smooth="yes"/>
      <point x="1167" y="-255"/>
      <point x="1352" y="-156"/>
      <point x="1498" y="-24" type="curve"/>
      <point x="1430" y="82" type="line"/>
      <point x="1264" y="-55"/>
      <point x="1071" y="-100"/>
      <point x="891" y="-100" type="curve" smooth="yes"/>
      <point x="551" y="-100"/>
      <point x="224" y="111"/>
      <point x="224" y="530" type="curve" smooth="yes"/>
      <point x="224" y="702"/>
      <point x="348" y="1179"/>
      <point x="858" y="1179" type="curve" smooth="yes"/>
      <point x="1178" y="1179"/>
      <point x="1413" y="965"/>
      <point x="1413" y="647" type="curve" smooth="yes"/>
      <point x="1413" y="479"/>
      <point x="1308" y="244"/>
      <point x="1154" y="244" type="curve" smooth="yes"/>
      <point x="1117" y="244"/>
      <point x="1098" y="242"/>
      <point x="1098" y="298" type="curve" smooth="yes"/>
      <point x="1098" y="409"/>
      <point x="1184" y="700"/>
      <point x="1230" y="917" type="curve"/>
      <point x="1138" y="951"/>
      <point x="1039" y="988"/>
      <point x="906" y="988" type="curve" smooth="yes"/>
      <point x="624" y="988"/>
      <point x="399" y="711"/>
      <point x="399" y="410" type="curve" smooth="yes"/>
      <point x="399" y="237"/>
      <point x="502" y="107"/>
      <point x="701" y="107" type="curve" smooth="yes"/>
      <point x="800" y="107"/>
      <point x="901" y="187"/>
      <point x="953" y="338" type="curve"/>
      <point x="948" y="146"/>
      <point x="1026" y="88"/>
      <point x="1129" y="88" type="curve" smooth="yes"/>
      <point x="1369" y="88"/>
      <point x="1586" y="330"/>
      <point x="1586" y="647" type="curve" smooth="yes"/>
      <point x="1586" y="1051"/>
      <point x="1268" y="1338"/>
      <point x="854" y="1338" type="curve" smooth="yes"/>
      <point x="393" y="1338"/>
      <point x="39" y="1006"/>
      <point x="39" y="553" type="curve" smooth="yes"/>
      <point x="39" y="69"/>
      <point x="395" y="-255"/>
    </contour>
    <contour>
      <point x="692" y="256" type="curve" smooth="yes"/>
      <point x="621" y="256"/>
      <point x="600" y="353"/>
      <point x="600" y="438" type="curve" smooth="yes"/>
      <point x="600" y="623"/>
      <point x="765" y="864"/>
      <point x="931" y="864" type="curve" smooth="yes"/>
      <point x="965" y="864"/>
      <point x="987" y="862"/>
      <point x="1022" y="859" type="curve"/>
      <point x="1015" y="830"/>
      <point x="1007" y="796"/>
      <point x="997" y="759" type="curve" smooth="yes"/>
      <point x="945" y="540"/>
      <point x="855" y="256"/>
    </contour>
  </outline>
</glyph>
<glyph name="E" format="1">
  <advance width="1158"/>
  <unicode hex="0045"/>
  <outline>
    <contour>
      <point x="147" y="0" type="line"/>
      <point x="1060" y="0" type="line"/>
      <point x="1071" y="258" type="line"/>
      <point x="483" y="258" type="line"/>
      <point x="483" y="635" type="line"/>
      <point x="1020" y="635" type="line"/>
      <point x="1020" y="892" type="line"/>
      <point x="483" y="892" type="line"/>
      <point x="483" y="1199" type="line"/>
      <point x="1049" y="1199" type="line"/>
      <point x="1062" y="1455" type="line"/>
      <point x="147" y="1455" type="line"/>
    </contour>
    <contour>
      <point x="579" y="1455" type="move" name="top"/>
    </contour>
    <contour>
      <point x="579" y="0" type="move" name="bottom"/>
    </contour>
    <contour>
      <point x="1042" y="10" type="move" name="ogonek"/>
    </contour>
  </outline>
</glyph>
<glyph name="F" format="1">
  <advance width="1145"/>
  <unicode hex="0046"/>
  <outline>
    <contour>
      <point x="147" y="0" type="line"/>
      <point x="481" y="0" type="line"/>
      <point x="481" y="595" type="line"/>
      <point x="1004" y="595" type="line"/>
      <point x="1004" y="852" type="line"/>
      <point x="480" y="852" type="line"/>
      <point x="480" y="1199" type="line"/>
      <point x="1033" y="1199" type="line"/>
      <point x="1045" y="1455" type="line"/>
      <point x="147" y="1455" type="line"/>
    </contour>
  </outline>
</glyph>
<glyph name="I" format="1">
  <advance width="643"/>
  <unicode hex="0049"/>
  <outline>
    <contour>
      <point x="153" y="0" type="line"/>
      <point x="490" y="0" type="line"/>
      <point x="490" y="1455" type="line"/>
      <point x="153" y="1455" type="line"/>
    </contour>
    <contour>
      <point x="322" y="1455" type="move" name="top"/>
    </contour>
    <contour>
      <point x="579" y="10" type="move" name="ogonek"/>
    </contour>
  </outline>
</glyph>
<glyph name="S" format="1">
  <advance width="1163"/>
  <unicode hex="0053"/>
  <outline>
    <contour>
      <point x="528" y="-18" type="curve" smooth="yes"/>
      <point x="870" y="-18"/>
      <point x="1096" y="136"/>
      <point x="1096" y="402" type="curve" smooth="yes"/>
      <point x="1096" y="634"/>
      <point x="1007" y="753"/>
      <point x="717" y="859" type="curve" smooth="yes"/>
      <point x="592" y="902"/>
      <point x="577" y="917"/>
      <point x="504" y="944" type="curve" smooth="yes"/>
      <point x="474" y="960"/>
      <point x="451" y="1005"/>
      <point x="451" y="1066" type="curve" smooth="yes"/>
      <point x="461" y="1178"/>
      <point x="523" y="1205"/>
      <point x="623" y="1205" type="curve" smooth="yes"/>
      <point x="735" y="1205"/>
      <point x="848" y="1167"/>
      <point x="962" y="1122" type="curve"/>
      <point x="1065" y="1358" type="line"/>
      <point x="913" y="1440"/>
      <point x="776" y="1469"/>
      <point x="602" y="1469" type="curve" smooth="yes"/>
      <point x="315" y="1469"/>
      <point x="104" y="1313"/>
      <point x="104" y="1054" type="curve" smooth="yes"/>
      <point x="104" y="842"/>
      <point x="211" y="717"/>
      <point x="371" y="647" type="curve" smooth="yes"/>
      <point x="457" y="613"/>
      <point x="530" y="586"/>
      <point x="610" y="561" type="curve" smooth="yes"/>
      <point x="673" y="538"/>
      <point x="757" y="495"/>
      <point x="757" y="409" type="curve" smooth="yes"/>
      <point x="757" y="318"/>
      <point x="689" y="249"/>
      <point x="540" y="249" type="curve" smooth="yes"/>
      <point x="424" y="249"/>
      <point x="279" y="299"/>
      <point x="169" y="365" type="curve"/>
      <point x="94" y="103" type="line"/>
      <point x="240" y="20"/>
      <point x="374" y="-18"/>
    </contour>
    <contour>
      <point x="582" y="1455" type="move" name="top"/>
    </contour>
    <contour>
      <point x="582" y="0" type="move" name="bottom"/>
    </contour>
  </outline>
</glyph>
<glyph name="T" format="1">
  <advance width="1188"/>
  <unicode hex="0054"/>
  <outline>
    <contour>
      <point x="427" y="0" type="line"/>
      <point x="764" y="0" type="line"/>
      <point x="764" y="1196" type="line"/>
      <point x="1170" y="1196" type="line"/>
      <point x="1170" y="1455" type="line"/>
      <point x="18" y="1455" type="line"/>
      <point x="18" y="1196" type="line"/>
      <point x="427" y="1196" type="line"/>
    </contour>
    <contour>
      <point x="594" y="1455" type="move" name="top"/>
    </contour>
    <contour>
      <point x="594" y="0" type="move" name="bottom"/>
    </contour>
    <contour>
      <point x="594" y="728" type="move" name="center"/>
    </contour>
  </outline>
</glyph>
<glyph name="X" format="1">
  <advance width="1401"/>
  <unicode hex="0058"/>
  <outline>
    <contour>
      <point x="-24" y="0" type="line"/>
      <point x="346" y="0" type="line"/>
      <point x="693" y="510" type="line"/>
      <point x="1035" y="0" type="line"/>
      <point x="1425" y="0" type="line"/>
      <point x="904" y="726" type="line"/>
      <point x="1395" y="1455" type="line"/>
      <point x="1037" y="1455" type="line"/>
      <point x="711" y="941" type="line"/>
      <point x="392" y="1455" type="line"/>
      <point x="17" y="1455" type="line"/>
      <point x="494" y="736" type="line"/>
    </contour>
  </outline>
</glyph>
<glyph name="grave" format="1">
  <advance width="428"/>
  <unicode hex="0060"/>
  <outline>
    <contour>
      <point x="267" y="1157" type="line"/>
      <point x="463" y="1157" type="line"/>
      <point x="273" y="1538" type="line"/>
      <point x="-70" y="1538" type="line"/>
    </contour>
    <contour>
      <point x="196.5" y="1098" type="move" name="_top"/>
    </contour>
  </outline>
</glyph>
<glyph name="a" format="1">
  <advance width="1171"/>
  <unicode hex="0061"/>
  <outline>
    <contour>
      <point x="415" y="-19" type="curve" smooth="yes"/>
      <point x="583" y="-19"/>
      <point x="675" y="49"/>
      <point x="760" y="131" type="curve"/>
      <point x="759" y="137"/>
      <point x="815" y="-7"/>
      <point x="813" y="0" type="curve"/>
      <point x="1049" y="0" type="line"/>
      <point x="1049" y="711" type="line" smooth="yes"/>
      <point x="1049" y="999"/>
      <point x="913" y="1130"/>
      <point x="600" y="1130" type="curve" smooth="yes"/>
      <point x="415" y="1130"/>
      <point x="295" y="1104"/>
      <point x="152" y="1051" type="curve"/>
      <point x="150" y="1057"/>
      <point x="233" y="831"/>
      <point x="231" y="836" type="curve"/>
      <point x="336" y="870"/>
      <point x="466" y="907"/>
      <point x="564" y="907" type="curve" smooth="yes"/>
      <point x="664" y="907"/>
      <point x="724" y="865"/>
      <point x="724" y="742" type="curve" smooth="yes"/>
      <point x="724" y="710" type="line"/>
      <point x="642" y="700"/>
      <point x="565" y="693"/>
      <point x="493" y="683" type="curve" smooth="yes"/>
      <point x="215" y="653"/>
      <point x="73" y="559"/>
      <point x="73" y="319" type="curve" smooth="yes"/>
      <point x="73" y="90"/>
      <point x="222" y="-19"/>
    </contour>
    <contour>
      <point x="516" y="200" type="curve" smooth="yes"/>
      <point x="427" y="200"/>
      <point x="384" y="248"/>
      <point x="384" y="324" type="curve" smooth="yes"/>
      <point x="384" y="458"/>
      <point x="495" y="498"/>
      <point x="636" y="511" type="curve"/>
      <point x="628" y="510"/>
      <point x="732" y="518"/>
      <point x="725" y="518" type="curve"/>
      <point x="725" y="288" type="line"/>
      <point x="689" y="263"/>
      <point x="630" y="200"/>
    </contour>
    <contour>
      <point x="586" y="1098" type="move" name="top"/>
    </contour>
    <contour>
      <point x="1054" y="10" type="move" name="ogonek"/>
    </contour>
  </outline>
</glyph>
<glyph name="b" format="1">
  <advance width="1290"/>
  <unicode hex="0062"/>
  <outline>
    <contour>
      <point x="768" y="-19" type="curve" smooth="yes"/>
      <point x="1034" y="-19"/>
      <point x="1217" y="215"/>
      <point x="1217" y="567" type="curve" smooth="yes"/>
      <point x="1217" y="897"/>
      <point x="1054" y="1130"/>
      <point x="778" y="1130" type="curve" smooth="yes"/>
      <point x="571" y="1130"/>
      <point x="485" y="1014"/>
      <point x="445" y="966" type="curve"/>
      <point x="449" y="1058"/>
      <point x="451" y="1133"/>
      <point x="451" y="1189" type="curve" smooth="yes"/>
      <point x="451" y="1513" type="line"/>
      <point x="126" y="1492" type="line"/>
      <point x="126" y="1" type="line"/>
      <point x="410" y="1" type="line"/>
      <point x="441" y="133" type="line"/>
      <point x="470" y="82"/>
      <point x="598" y="-19"/>
    </contour>
    <contour>
      <point x="674" y="220" type="curve" smooth="yes"/>
      <point x="541" y="220"/>
      <point x="449" y="307"/>
      <point x="449" y="584" type="curve" smooth="yes"/>
      <point x="452" y="819"/>
      <point x="548" y="894"/>
      <point x="678" y="894" type="curve" smooth="yes"/>
      <point x="781" y="894"/>
      <point x="896" y="821"/>
      <point x="896" y="564" type="curve" smooth="yes"/>
      <point x="896" y="309"/>
      <point x="778" y="220"/>
    </contour>
  </outline>
</glyph>
<glyph name="d" format="1">
  <advance width="1291"/>
  <unicode hex="0064"/>
  <outline>
    <contour>
      <point x="533" y="-20" type="curve" smooth="yes"/>
      <point x="780" y="-20"/>
      <point x="819" y="94"/>
      <point x="846" y="144" type="curve"/>
      <point x="881" y="0" type="line"/>
      <point x="1164" y="0" type="line"/>
      <point x="1164" y="1513" type="line"/>
      <point x="838" y="1492" type="line"/>
      <point x="838" y="1221" type="line"/>
      <point x="838" y="1136"/>
      <point x="842" y="1068"/>
      <point x="852" y="970" type="curve"/>
      <point x="831" y="1009"/>
      <point x="778" y="1130"/>
      <point x="533" y="1130" type="curve" smooth="yes"/>
      <point x="239" y="1130"/>
      <point x="73" y="901"/>
      <point x="73" y="563" type="curve" smooth="yes"/>
      <point x="73" y="220"/>
      <point x="244" y="-20"/>
    </contour>
    <contour>
      <point x="626" y="216" type="curve" smooth="yes"/>
      <point x="508" y="216"/>
      <point x="393" y="303"/>
      <point x="393" y="555" type="curve" smooth="yes"/>
      <point x="393" y="820"/>
      <point x="510" y="892"/>
      <point x="623" y="892" type="curve" smooth="yes"/>
      <point x="757" y="892"/>
      <point x="855" y="812"/>
      <point x="855" y="541" type="curve" smooth="yes"/>
      <point x="851" y="289"/>
      <point x="751" y="216"/>
    </contour>
    <contour>
      <point x="646" y="549" type="move" name="center"/>
    </contour>
  </outline>
</glyph>
<glyph name="g" format="1">
  <advance width="1321"/>
  <unicode hex="0067"/>
  <outline>
    <contour>
      <point x="380" y="-485" type="line"/>
      <point x="508" y="-485" type="line" smooth="yes"/>
      <point x="1028" y="-485"/>
      <point x="1202" y="-345"/>
      <point x="1202" y="77" type="curve" smooth="yes"/>
      <point x="1202" y="1101" type="line"/>
      <point x="920" y="1101" type="line"/>
      <point x="890" y="974" type="line"/>
      <point x="836" y="1062"/>
      <point x="737" y="1130"/>
      <point x="564" y="1130" type="curve" smooth="yes"/>
      <point x="351" y="1130"/>
      <point x="79" y="971"/>
      <point x="79" y="573" type="curve" smooth="yes"/>
      <point x="79" y="187"/>
      <point x="328" y="0"/>
      <point x="594" y="0" type="curve" smooth="yes"/>
      <point x="771" y="0"/>
      <point x="826" y="65"/>
      <point x="877" y="134" type="curve"/>
      <point x="883" y="69"/>
      <point x="887" y="26"/>
      <point x="887" y="-43" type="curve" smooth="yes"/>
      <point x="887" y="-231"/>
      <point x="725" y="-232"/>
      <point x="451" y="-232" type="curve" smooth="yes"/>
      <point x="365" y="-232" type="line"/>
    </contour>
    <contour>
      <point x="647" y="209" type="curve" smooth="yes"/>
      <point x="499" y="209"/>
      <point x="401" y="351"/>
      <point x="401" y="568" type="curve" smooth="yes"/>
      <point x="401" y="799"/>
      <point x="497" y="890"/>
      <point x="669" y="890" type="curve" smooth="yes"/>
      <point x="801" y="888"/>
      <point x="885" y="795"/>
      <point x="890" y="576" type="curve" smooth="yes"/>
      <point x="890" y="566"/>
      <point x="890" y="576"/>
      <point x="890" y="565" type="curve" smooth="yes"/>
      <point x="888" y="347"/>
      <point x="830" y="209"/>
    </contour>
    <contour>
      <point x="661" y="1098" type="move" name="top"/>
    </contour>
  </outline>
</glyph>
<glyph name="j" format="1">
  <advance width="581"/>
  <unicode hex="006A"/>
  <outline>
    <contour>
      <point x="-44" y="-377" type="line"/>
      <point x="20" y="-377" type="line" smooth="yes"/>
      <point x="421" y="-377"/>
      <point x="490" y="-198"/>
      <point x="490" y="136" type="curve" smooth="yes"/>
      <point x="490" y="1101" type="line"/>
      <point x="165" y="1101" type="line"/>
      <point x="165" y="54" type="line" smooth="yes"/>
      <point x="165" y="-111"/>
      <point x="137" y="-154"/>
      <point x="-15" y="-154" type="curve" smooth="yes"/>
      <point x="-77" y="-154" type="line"/>
    </contour>
    <contour>
      <point x="165" y="1233" type="line"/>
      <point x="490" y="1233" type="line"/>
      <point x="490" y="1474" type="line"/>
      <point x="165" y="1474" type="line"/>
    </contour>
  </outline>
</glyph>
<glyph name="l" format="1">
  <advance width="767"/>
  <unicode hex="006C"/>
  <outline>
    <contour>
      <point x="572" y="-11" type="curve" smooth="yes"/>
      <point x="687" y="-11"/>
      <point x="783" y="20"/>
      <point x="765" y="17" type="curve"/>
      <point x="758" y="240" type="line"/>
      <point x="709" y="233"/>
      <point x="664" y="229"/>
      <point x="631" y="229" type="curve" smooth="yes"/>
      <point x="507" y="229"/>
      <point x="456" y="281"/>
      <point x="456" y="442" type="curve" smooth="yes"/>
      <point x="456" y="1513" type="line"/>
      <point x="130" y="1492" type="line"/>
      <point x="130" y="479" type="line" smooth="yes"/>
      <point x="130" y="162"/>
      <point x="207" y="-11"/>
    </contour>
    <contour>
      <point x="384" y="1098" type="move" name="top"/>
    </contour>
    <contour>
      <point x="384" y="0" type="move" name="bottom"/>
    </contour>
    <contour>
      <point x="747" y="1098" type="move" name="topright"/>
    </contour>
  </outline>
</glyph>
<glyph name="o" format="1">
  <advance width="1236"/>
  <unicode hex="006F"/>
  <outline>
    <contour>
      <point x="617" y="219" type="curve" smooth="yes"/>
      <point x="468" y="219"/>
      <point x="394" y="329"/>
      <point x="394" y="556" type="curve" smooth="yes"/>
      <point x="394" y="788"/>
      <point x="469" y="893"/>
      <point x="616" y="893" type="curve" smooth="yes"/>
      <point x="763" y="893"/>
      <point x="841" y="785"/>
      <point x="841" y="556" type="curve" smooth="yes"/>
      <point x="841" y="328"/>
      <point x="766" y="219"/>
    </contour>
    <contour>
      <point x="611" y="-19" type="curve" smooth="yes"/>
      <point x="966" y="-19"/>
      <point x="1163" y="201"/>
      <point x="1163" y="555" type="curve" smooth="yes"/>
      <point x="1163" y="904"/>
      <point x="962" y="1130"/>
      <point x="623" y="1130" type="curve" smooth="yes"/>
      <point x="266" y="1130"/>
      <point x="73" y="916"/>
      <point x="73" y="556" type="curve" smooth="yes"/>
      <point x="73" y="212"/>
      <point x="269" y="-19"/>
    </contour>
    <contour>
      <point x="618" y="1098" type="move" name="top"/>
    </contour>
  </outline>
</glyph>
<glyph name="bar" format="1">
  <advance width="733"/>
  <unicode hex="007C"/>
  <outline>
    <contour>
      <point x="246" y="-366" type="line"/>
      <point x="487" y="-366" type="line"/>
      <point x="487" y="1510" type="line"/>
      <point x="246" y="1510" type="line"/>
    </contour>
  </outline>
</glyph>
<glyph name="asciitilde" format="1">
  <advance width="1325"/>
  <unicode hex="007E"/>
  <outline>
    <contour>
      <point x="230" y="449" type="line"/>
      <point x="268" y="520"/>
      <point x="326" y="591"/>
      <point x="422" y="591" type="curve" smooth="yes"/>
      <point x="502" y="591"/>
      <point x="551" y="572"/>
      <point x="608" y="544" type="curve" smooth="yes"/>
      <point x="712" y="498"/>
      <point x="785" y="466"/>
      <point x="893" y="466" type="curve" smooth="yes"/>
      <point x="1046" y="466"/>
      <point x="1196" y="575"/>
      <point x="1250" y="657" type="curve"/>
      <point x="1169" y="818" type="line"/>
      <point x="1060" y="719"/>
      <point x="998" y="695"/>
      <point x="918" y="695" type="curve" smooth="yes"/>
      <point x="856" y="695"/>
      <point x="794" y="712"/>
      <point x="709" y="749" type="curve" smooth="yes"/>
      <point x="630" y="782"/>
      <point x="524" y="814"/>
      <point x="434" y="814" type="curve" smooth="yes"/>
      <point x="274" y="814"/>
      <point x="192" y="724"/>
      <point x="136" y="622" type="curve"/>
    </contour>
  </outline>
</glyph>
<glyph name="cent" format="1">
  <advance width="1068"/>
  <unicode hex="00A2"/>
  <outline>
    <contour>
      <point x="591" y="-338" type="line"/>
      <point x="695" y="-338" type="line"/>
      <point x="695" y="-24" type="line"/>
      <point x="809" y="-17"/>
      <point x="887" y="15"/>
      <point x="975" y="68" type="curve"/>
      <point x="916" y="279" type="line"/>
      <point x="862" y="241"/>
      <point x="786" y="205"/>
      <point x="695" y="198" type="curve"/>
      <point x="695" y="870" type="line"/>
      <point x="786" y="860"/>
      <point x="879" y="816"/>
      <point x="912" y="792" type="curve"/>
      <point x="959" y="1002" type="line"/>
      <point x="882" y="1054"/>
      <point x="806" y="1082"/>
      <point x="695" y="1093" type="curve"/>
      <point x="695" y="1340" type="line"/>
      <point x="591" y="1340" type="line"/>
      <point x="591" y="1097" type="line"/>
      <point x="341" y="1087"/>
      <point x="90" y="947"/>
      <point x="90" y="566" type="curve"/>
      <point x="90" y="171"/>
      <point x="308" y="-4"/>
      <point x="591" y="-24" type="curve"/>
    </contour>
    <contour>
      <point x="591" y="205" type="line"/>
      <point x="466" y="233"/>
      <point x="387" y="328"/>
      <point x="387" y="555" type="curve" smooth="yes"/>
      <point x="387" y="769"/>
      <point x="475" y="842"/>
      <point x="591" y="865" type="curve"/>
    </contour>
  </outline>
</glyph>
<glyph name="currency" format="1">
  <advance width="1170"/>
  <unicode hex="00A4"/>
  <outline>
    <contour>
      <point x="1016" y="227" type="line"/>
      <point x="1119" y="335" type="line"/>
      <point x="938" y="503" type="line"/>
      <point x="983" y="571"/>
      <point x="1008" y="648"/>
      <point x="1008" y="732" type="curve" smooth="yes"/>
      <point x="1008" y="817"/>
      <point x="982" y="896"/>
      <point x="937" y="961" type="curve"/>
      <point x="1121" y="1132" type="line"/>
      <point x="1016" y="1238" type="line"/>
      <point x="832" y="1065" type="line"/>
      <point x="761" y="1117"/>
      <point x="677" y="1148"/>
      <point x="585" y="1148" type="curve" smooth="yes"/>
      <point x="493" y="1148"/>
      <point x="409" y="1118"/>
      <point x="339" y="1067" type="curve"/>
      <point x="157" y="1238" type="line"/>
      <point x="49" y="1133" type="line"/>
      <point x="234" y="961" type="line"/>
      <point x="188" y="893"/>
      <point x="163" y="816"/>
      <point x="163" y="732" type="curve" smooth="yes"/>
      <point x="163" y="649"/>
      <point x="188" y="570"/>
      <point x="234" y="503" type="curve"/>
      <point x="50" y="333" type="line"/>
      <point x="157" y="228" type="line"/>
      <point x="337" y="397" type="line"/>
      <point x="404" y="347"/>
      <point x="489" y="318"/>
      <point x="585" y="318" type="curve" smooth="yes"/>
      <point x="676" y="318"/>
      <point x="760" y="347"/>
      <point x="832" y="398" type="curve"/>
    </contour>
    <contour>
      <point x="585" y="476" type="curve" smooth="yes"/>
      <point x="439" y="476"/>
      <point x="321" y="591"/>
      <point x="321" y="732" type="curve" smooth="yes"/>
      <point x="321" y="872"/>
      <point x="440" y="988"/>
      <point x="585" y="988" type="curve" smooth="yes"/>
      <point x="731" y="988"/>
      <point x="850" y="873"/>
      <point x="850" y="732" type="curve" smooth="yes"/>
      <point x="850" y="591"/>
      <point x="732" y="476"/>
    </contour>
  </outline>
</glyph>
<glyph name="dieresis" format="1">
  <advance width="774"/>
  <unicode hex="00A8"/>
  <outline>
    <contour>
      <point x="52" y="1224" type="line"/>
      <point x="273" y="1224" type="line"/>
      <point x="273" y="1506" type="line"/>
      <point x="52" y="1506" type="line"/>
    </contour>
    <contour>
      <point x="493" y="1224" type="line"/>
      <point x="716" y="1224" type="line"/>
      <point x="716" y="1506" type="line"/>
      <point x="493" y="1506" type="line"/>
    </contour>
    <contour>
      <point x="384" y="1098" type="move" name="_top"/>
    </contour>
  </outline>
</glyph>
<glyph name="ordfeminine" format="1">
  <advance width="723"/>
  <unicode hex="00AA"/>
  <outline>
    <contour>
      <point x="265" y="700" type="curve" smooth="yes"/>
      <point x="342" y="700"/>
      <point x="456" y="740"/>
      <point x="501" y="797" type="curve"/>
      <point x="527" y="708" type="line"/>
      <point x="674" y="708" type="line"/>
      <point x="675" y="686"/>
      <point x="676" y="830"/>
      <point x="676" y="826" type="curve" smooth="yes"/>
      <point x="675" y="1226" type="line"/>
      <point x="675" y="1407"/>
      <point x="544" y="1463"/>
      <point x="385" y="1463" type="curve" smooth="yes"/>
      <point x="284" y="1463"/>
      <point x="163" y="1436"/>
      <point x="60" y="1418" type="curve"/>
      <point x="89" y="1286" type="line"/>
      <point x="208" y="1300"/>
      <point x="301" y="1324"/>
      <point x="362" y="1324" type="curve" smooth="yes"/>
      <point x="437" y="1324"/>
      <point x="481" y="1294"/>
      <point x="481" y="1201" type="curve"/>
      <point x="481" y="1159" type="line"/>
      <point x="332" y="1134"/>
      <point x="39" y="1128"/>
      <point x="39" y="905" type="curve" smooth="yes"/>
      <point x="39" y="763"/>
      <point x="148" y="700"/>
    </contour>
    <contour>
      <point x="98" y="470" type="line"/>
      <point x="669" y="470" type="line"/>
      <point x="669" y="599" type="line"/>
      <point x="98" y="599" type="line"/>
    </contour>
    <contour>
      <point x="283" y="838" type="curve" smooth="yes"/>
      <point x="251" y="838"/>
      <point x="221" y="868"/>
      <point x="221" y="914" type="curve" smooth="yes"/>
      <point x="221" y="985"/>
      <point x="289" y="1018"/>
      <point x="481" y="1046" type="curve"/>
      <point x="481" y="879" type="line"/>
      <point x="402" y="837"/>
      <point x="317" y="838"/>
    </contour>
  </outline>
</glyph>
<glyph name="guillemotleft" format="1">
  <advance width="1138"/>
  <unicode hex="00AB"/>
  <outline>
    <contour>
      <point x="386" y="128" type="line"/>
      <point x="634" y="194" type="line"/>
      <point x="355" y="562" type="line"/>
      <point x="639" y="934" type="line"/>
      <point x="389" y="999" type="line"/>
      <point x="74" y="603" type="line"/>
      <point x="43" y="564" type="line"/>
    </contour>
    <contour>
      <point x="839" y="128" type="curve"/>
      <point x="1087" y="194" type="line"/>
      <point x="807" y="562" type="line"/>
      <point x="1091" y="934" type="line"/>
      <point x="841" y="999" type="line"/>
      <point x="502" y="552" type="line"/>
      <point x="502" y="552"/>
      <point x="862" y="97"/>
    </contour>
  </outline>
</glyph>
<glyph name="acute" format="1">
  <advance width="605"/>
  <unicode hex="00B4"/>
  <outline>
    <contour>
      <point x="233" y="1158" type="line"/>
      <point x="416" y="1158" type="line"/>
      <point x="723" y="1538" type="line"/>
      <point x="394" y="1538" type="line"/>
    </contour>
    <contour>
      <point x="478" y="1098" type="move" name="_top"/>
    </contour>
  </outline>
</glyph>
<glyph name="onehalf" format="1">
  <advance width="1947"/>
  <unicode hex="00BD"/>
  <outline>
    <contour>
      <point x="119" y="568" type="line"/>
      <point x="670" y="568" type="line"/>
      <point x="670" y="725" type="line"/>
      <point x="518" y="725" type="line"/>
      <point x="518" y="1448" type="line"/>
      <point x="300" y="1448" type="line"/>
      <point x="310" y="1458"/>
      <point x="81" y="1328"/>
      <point x="96" y="1336" type="curve"/>
      <point x="96" y="1158" type="line"/>
      <point x="85" y="1152"/>
      <point x="286" y="1269"/>
      <point x="277" y="1263" type="curve"/>
      <point x="277" y="725" type="line"/>
      <point x="119" y="725" type="line"/>
    </contour>
    <contour>
      <point x="1270" y="-29" type="line"/>
      <point x="1831" y="-29" type="line"/>
      <point x="1857" y="129" type="line"/>
      <point x="1562" y="129" type="line"/>
      <point x="1737" y="263"/>
      <point x="1850" y="324"/>
      <point x="1850" y="515" type="curve" smooth="yes"/>
      <point x="1850" y="696"/>
      <point x="1706" y="813"/>
      <point x="1548" y="813" type="curve" smooth="yes"/>
      <point x="1413" y="813"/>
      <point x="1315" y="782"/>
      <point x="1248" y="707" type="curve"/>
      <point x="1306" y="555" type="line"/>
      <point x="1350" y="607"/>
      <point x="1441" y="634"/>
      <point x="1514" y="634" type="curve" smooth="yes"/>
      <point x="1578" y="634"/>
      <point x="1656" y="593"/>
      <point x="1656" y="513" type="curve" smooth="yes"/>
      <point x="1656" y="357"/>
      <point x="1440" y="254"/>
      <point x="1273" y="137" type="curve"/>
    </contour>
    <contour>
      <point x="353" y="0" type="line"/>
      <point x="597" y="0" type="line"/>
      <point x="1681" y="1421" type="line"/>
      <point x="1441" y="1421" type="line"/>
    </contour>
  </outline>
</glyph>
<glyph name="multiply" format="1">
  <advance width="1663"/>
  <unicode hex="00D7"/>
  <outline>
    <contour>
      <point x="537" y="125" type="line"/>
      <point x="857" y="405" type="line"/>
      <point x="1177" y="125" type="line"/>
      <point x="1331" y="288" type="line"/>
      <point x="1209" y="409"/>
      <point x="1157" y="449"/>
      <point x="1034" y="569" type="curve"/>
      <point x="1331" y="847" type="line"/>
      <point x="1175" y="1015" type="line"/>
      <point x="857" y="733" type="line"/>
      <point x="538" y="1015" type="line"/>
      <point x="386" y="848" type="line"/>
      <point x="681" y="569" type="line"/>
      <point x="386" y="287" type="line"/>
    </contour>
  </outline>
</glyph>
<glyph name="divide" format="1">
  <advance width="1619"/>
  <unicode hex="00F7"/>
  <outline>
    <contour>
      <point x="656" y="21" type="line"/>
      <point x="987" y="21" type="line"/>
      <point x="987" y="302" type="line"/>
      <point x="656" y="302" type="line"/>
    </contour>
    <contour>
      <point x="232" y="467" type="line"/>
      <point x="1392" y="467" type="line"/>
      <point x="1392" y="678" type="line"/>
      <point x="232" y="678" type="line"/>
    </contour>
    <contour>
      <point x="656" y="832" type="line"/>
      <point x="979" y="832" type="line"/>
      <point x="979" y="1112" type="line"/>
      <point x="656" y="1112" type="line"/>
    </contour>
  </outline>
</glyph>
<glyph name="caron" format="1">
  <advance width="754"/>
  <unicode hex="02C7"/>
  <outline>
    <contour>
      <point x="306" y="1155" type="line"/>
      <point x="502" y="1155" type="line"/>
      <point x="814" y="1484" type="line"/>
      <point x="564" y="1484" type="line"/>
      <point x="398" y="1365" type="line"/>
      <point x="238" y="1484" type="line"/>
      <point x="-6" y="1484" type="line"/>
    </contour>
    <contour>
      <point x="404" y="1098" type="move" name="_top"/>
    </contour>
  </outline>
</glyph>
<glyph name="uni0307" format="1">
  <advance width="584"/>
  <unicode hex="0307"/>
  <outline>
    <contour>
      <point x="181" y="1171" type="line"/>
      <point x="404" y="1171" type="line"/>
      <point x="404" y="1400" type="line"/>
      <point x="181" y="1400" type="line"/>
    </contour>
    <contour>
      <point x="292.5" y="1098" type="move" name="_top"/>
    </contour>
  </outline>
</glyph>
<glyph name="uni0326" format="1">
  <advance width="683"/>
  <unicode hex="0326"/>
  <outline>
    <contour>
      <point x="85" y="-648" type="line"/>
      <point x="287" y="-648" type="line"/>
      <point x="470" y="-119" type="line"/>
      <point x="207" y="-119" type="line"/>
    </contour>
    <contour>
      <point x="277.5" y="0" type="move" name="_bottom"/>
    </contour>
  </outline>
</glyph>
<glyph name="endash" format="1">
  <advance width="1240"/>
  <unicode hex="2013"/>
  <outline>
    <contour>
      <point x="55" y="417" type="line"/>
      <point x="1189" y="417" type="line"/>
      <point x="1189" y="626" type="line"/>
      <point x="55" y="626" type="line"/>
    </contour>
  </outline>
</glyph>
<glyph name="quotedblleft" format="1">
  <advance width="688"/>
  <unicode hex="201C"/>
  <outline>
    <contour>
      <point x="12" y="1578" type="line"/>
      <point x="180" y="953" type="line"/>
      <point x="374" y="835" type="line"/>
      <point x="277" y="1460" type="line"/>
    </contour>
    <contour>
      <point x="317" y="1578" type="line"/>
      <point x="466" y="953" type="line"/>
      <point x="678" y="835" type="line"/>
      <point x="567" y="1460" type="line"/>
    </contour>
  </outline>
</glyph>
<glyph name="quotedblbase" format="1">
  <advance width="1129"/>
  <unicode hex="201E"/>
  <outline>
    <contour>
      <point x="180" y="-296" type="line"/>
      <point x="389" y="-296" type="line"/>
      <point x="582" y="210" type="line"/>
      <point x="304" y="210" type="line"/>
    </contour>
    <contour>
      <point x="559" y="-296" type="line"/>
      <point x="780" y="-296" type="line"/>
      <point x="962" y="210" type="line"/>
      <point x="695" y="210" type="line"/>
    </contour>
  </outline>
</glyph>
<glyph name="daggerdbl" format="1">
  <advance width="1026"/>
  <unicode hex="2021"/>
  <outline>
    <contour>
      <point x="396" y="-119" type="line"/>
      <point x="643" y="-119" type="line"/>
      <point x="643" y="300" type="line"/>
      <point x="897" y="300" type="line"/>
      <point x="897" y="479" type="line"/>
      <point x="643" y="479" type="line"/>
      <point x="642" y="894" type="line"/>
      <point x="898" y="894" type="line"/>
      <point x="898" y="1073" type="line"/>
      <point x="642" y="1073" type="line"/>
      <point x="642" y="1428" type="line"/>
      <point x="394" y="1428" type="line"/>
      <point x="394" y="1073" type="line"/>
      <point x="140" y="1073" type="line"/>
      <point x="140" y="894" type="line"/>
      <point x="394" y="894" type="line"/>
      <point x="396" y="479" type="line"/>
      <point x="138" y="479" type="line"/>
      <point x="138" y="300" type="line"/>
      <point x="396" y="300" type="line"/>
    </contour>
  </outline>
</glyph>
<glyph name="guilsinglleft" format="1">
  <advance width="560"/>
  <unicode hex="2039"/>
  <outline>
    <contour>
      <point x="297" y="168" type="line"/>
      <point x="540" y="168" type="line"/>
      <point x="267" y="558" type="line"/>
      <point x="547" y="953" type="line"/>
      <point x="304" y="953" type="line"/>
      <point x="11" y="558" type="line"/>
    </contour>
  </outline>
</glyph>
<glyph name="guilsinglright" format="1">
  <advance width="562"/>
  <unicode hex="203A"/>
  <outline>
    <contour>
      <point x="10" y="168" type="line"/>
      <point x="252" y="168" type="line"/>
      <point x="549" y="559" type="line"/>
      <point x="259" y="953" type="line"/>
      <point x="19" y="953" type="line"/>
      <point x="290" y="559" type="line"/>
    </contour>
  </outline>
</glyph>
<glyph name="uni2074" format="1">
  <advance width="941"/>
  <unicode hex="2074"/>
  <outline>
    <contour>
      <point x="444" y="604" type="line"/>
      <point x="635" y="604" type="line"/>
      <point x="636" y="756" type="line"/>
      <point x="761" y="756" type="line"/>
      <point x="745" y="937" type="line"/>
      <point x="637" y="937" type="line"/>
      <point x="637" y="1398" type="line"/>
      <point x="449" y="1398" type="line"/>
      <point x="78" y="889" type="line"/>
      <point x="78" y="756" type="line"/>
      <point x="444" y="756" type="line"/>
    </contour>
    <contour>
      <point x="331" y="937" type="line"/>
      <point x="442" y="1103" type="line"/>
      <point x="442" y="1110"/>
      <point x="442" y="937"/>
      <point x="442" y="937" type="curve"/>
    </contour>
  </outline>
</glyph>
<glyph name="trademark" format="1">
  <advance width="1828"/>
  <unicode hex="2122"/>
  <outline>
    <contour>
      <point x="769" y="705" type="line"/>
      <point x="969" y="705" type="line"/>
      <point x="969" y="1117" type="line"/>
      <point x="1143" y="688" type="line"/>
      <point x="1260" y="688" type="line"/>
      <point x="1444" y="1127" type="line"/>
      <point x="1444" y="705" type="line"/>
      <point x="1635" y="705" type="line"/>
      <point x="1635" y="1452" type="line"/>
      <point x="1401" y="1452" type="line"/>
      <point x="1209" y="989" type="line"/>
      <point x="1025" y="1452" type="line"/>
      <point x="769" y="1452" type="line"/>
    </contour>
    <contour>
      <point x="304" y="705" type="line"/>
      <point x="506" y="705" type="line"/>
      <point x="506" y="1277" type="line"/>
      <point x="740" y="1277" type="line"/>
      <point x="740" y="1452" type="line"/>
      <point x="56" y="1452" type="line"/>
      <point x="58" y="1277" type="line"/>
      <point x="304" y="1277" type="line"/>
    </contour>
  </outline>
</glyph>
<glyph name="product" format="1">
  <advance width="1573"/>
  <unicode hex="220F"/>
  <outline>
    <contour>
      <point x="268" y="-411" type="line"/>
      <point x="514" y="-411" type="line"/>
      <point x="514" y="1200" type="line"/>
      <point x="1085" y="1200" type="line"/>
      <point x="1085" y="-411" type="line"/>
      <point x="1334" y="-411" type="line"/>
      <point x="1334" y="1419" type="line"/>
      <point x="268" y="1419" type="line"/>
    </contour>
  </outline>
</glyph>
